<svg height="512" viewBox="0 0 512 512" width="512" xmlns="http://www.w3.org/2000/svg"><g id="flat"><path d="m296 341.859 147.7 73.853a60 60 0 0 1 32.612 45.488l3.688 26.8h-448l3.688-26.8a60 60 0 0 1 32.612-45.488l147.7-73.853z" fill="#d32b39"/><path d="m256 325.859a70.9 70.9 0 0 1 -65.827-44.566 198.16 198.16 0 0 1 -14.173-73.593v-63.7a80 80 0 0 1 80-80 80 80 0 0 1 80 80v63.7a198.16 198.16 0 0 1 -14.173 73.6 70.9 70.9 0 0 1 -65.827 44.559z" fill="#fdc9a6"/><path d="m312 349.859-16-8v-32h-80v32l-16 8 56 34.141z" fill="#fdc9a6"/><g fill="#55300b"><path d="m279.991 184a8 8 0 0 1 -.7-15.968l24-2.141a8 8 0 0 1 1.422 15.937l-24 2.14c-.244.022-.484.032-.722.032z"/><circle cx="290" cy="199.859" r="10"/><path d="m232.009 184c-.238 0-.478-.01-.72-.032l-24-2.14a8 8 0 0 1 1.422-15.937l24 2.141a8 8 0 0 1 -.7 15.968z"/><circle cx="222" cy="199.859" r="10"/></g><path d="m264 245.859h-16a8 8 0 0 1 -8-8v-13.859a8 8 0 0 1 16 0v5.859h8a8 8 0 0 1 0 16z" fill="#e6af89"/><path d="m176 173.859h-11.056a20.944 20.944 0 0 0 -20.944 20.941v14.111a20.948 20.948 0 0 0 2.211 9.367 20.945 20.945 0 0 0 18.733 11.577h19.056z" fill="#fdc9a6"/><path d="m336 173.859h11.056a20.944 20.944 0 0 1 20.944 20.941v14.111a20.948 20.948 0 0 1 -2.211 9.367 20.945 20.945 0 0 1 -18.733 11.577h-19.056z" fill="#fdc9a6"/><path d="m72 488v-34.141a8 8 0 1 1 16 0v34.141z" fill="#961b20"/><path d="m424 488v-34.141a8 8 0 1 1 16 0v34.141z" fill="#961b20"/><path d="m208 341.859 48 32-18.184 25.867a24.71 24.71 0 0 1 -15.764 10.1 24.712 24.712 0 0 1 -28.211-17.526l-9.841-34.441z" fill="#961b20"/><path d="m304 341.859-48 32 18.184 25.867a24.71 24.71 0 0 0 15.764 10.1 24.712 24.712 0 0 0 28.211-17.526l9.841-34.441z" fill="#961b20"/><path d="m144 373.859v74.141h-32v-58.141z" fill="#533222"/><path d="m368 373.859v74.141h32v-58.141z" fill="#533222"/><path d="m272 272h-32a8 8 0 0 1 0-16h32a8 8 0 0 1 0 16z" fill="#e6af89"/><path d="m299.335 264.653-.667 4.671a21.752 21.752 0 0 1 -21.533 18.676 21.757 21.757 0 0 1 -9.728-2.3l-11.407-5.7-11.407 5.7a21.757 21.757 0 0 1 -9.728 2.3 21.752 21.752 0 0 1 -21.533-18.676l-.667-4.671a49.056 49.056 0 0 0 -36.665-40.653v33.837a80 80 0 0 0 50.289 74.278 80 80 0 0 0 59.422 0 80 80 0 0 0 50.289-74.278v-33.837a49.056 49.056 0 0 0 -36.665 40.653z" fill="#55300b"/><path d="m264 373.86v74.14a8 8 0 0 1 -16 0v-74.14a7.966 7.966 0 0 1 1.35-4.44l6.65 4.44 6.65-4.43a7.933 7.933 0 0 1 1.35 4.43z" fill="#961b20"/><path d="m400 448 8 40h-304l8-40z" fill="#b26643"/></g></svg>